<?xml version="1.0" encoding="utf-8"?>
<!-- Generator: Adobe Illustrator 18.1.1, SVG Export Plug-In . SVG Version: 6.00 Build 0)  -->
<svg version="1.1" id="Layer_1" xmlns="http://www.w3.org/2000/svg" xmlns:xlink="http://www.w3.org/1999/xlink" x="0px" y="0px"
	 viewBox="247.114 184.499 378.051 611.515" enable-background="new 247.114 184.499 378.051 611.515" xml:space="preserve">
<path fill="none" stroke="#FF0000" stroke-width="0.3" stroke-miterlimit="10" d="M357.492,625.548c0-4.444-3.596-8.04-8.04-8.04
	c-7.19,0-13.009,5.819-13.009,13.009c0,11.634,9.415,21.049,21.049,21.049c18.825,0,34.059-15.234,34.059-34.059
	c0-30.459-24.65-55.108-55.108-55.108c-49.221,0-89.178,39.957-89.178,89.178l0,0c0,79.679,64.607,144.286,144.286,144.286
	c128.9,0,233.464-104.486,233.464-233.464c0-208.658-169.093-377.751-377.751-377.751c-337.614,0-611.212,273.598-611.212,611.212"
	/>
<path fill="none" stroke="#FF0000" stroke-width="0.3" stroke-miterlimit="10" d="M357.492,625.548"/>
<path fill="none" stroke="#FF0000" stroke-width="0.3" stroke-miterlimit="10" d="M357.492,625.548"/>
<path fill="none" stroke="#FF0000" stroke-width="0.3" stroke-miterlimit="10" d="M357.492,625.548"/>
<path fill="none" stroke="#FF0000" stroke-width="0.3" stroke-miterlimit="10" d="M357.492,625.548"/>
</svg>
