<?xml version="1.0" encoding="utf-8"?>
<!-- Generator: Adobe Illustrator 18.1.1, SVG Export Plug-In . SVG Version: 6.00 Build 0)  -->
<svg version="1.1" id="Layer_1" xmlns="http://www.w3.org/2000/svg" xmlns:xlink="http://www.w3.org/1999/xlink" x="0px" y="0px"
	 viewBox="-83.558 357.875 611.515 378.051" enable-background="new -83.558 357.875 611.515 378.051" xml:space="preserve">
<path fill="none" stroke="#CCCCCC" stroke-width="0.3" stroke-miterlimit="10" d="M357.492,625.548c-4.444,0-8.04,3.596-8.04,8.04
	c0,7.19,5.819,13.009,13.009,13.009c11.634,0,21.049-9.415,21.049-21.049c0-18.825-15.234-34.059-34.059-34.059
	c-30.459,0-55.108,24.65-55.108,55.108c0,49.221,39.957,89.178,89.178,89.178l0,0c79.679,0,144.286-64.607,144.286-144.286
	c0-128.9-104.486-233.464-233.464-233.464c-208.658,0-377.751,169.093-377.751,377.751c0,337.614,273.598,611.212,611.212,611.212"
	/>
<path fill="none" stroke="#CCCCCC" stroke-width="0.3" stroke-miterlimit="10" d="M357.492,625.548"/>
<path fill="none" stroke="#CCCCCC" stroke-width="0.3" stroke-miterlimit="10" d="M357.492,625.548"/>
</svg>
